REM DIRINDEX 1\2,1\3,1\4,1\5,1\6
REM DIRNAME folder01,folder02,folder03,folder04,folder05,folder06
TITLE ""
FILE "DISC3Track03.mp3" MP3
  TRACK 01 AUDIO
    TITLE "0:"
    INDEX 01 00:00:00
  TRACK 02 AUDIO
    TITLE "3:cjc129_2104"
    INDEX 01 00:00:05
  TRACK 03 AUDIO
    TITLE "0:"
    INDEX 01 00:01:30
  TRACK 04 AUDIO
    TITLE "5:cjc129_2105"
    INDEX 01 00:01:62
  TRACK 05 AUDIO
    TITLE "0:"
    INDEX 01 00:06:18
  TRACK 06 AUDIO
    TITLE "4:cjc129_2106"
    INDEX 01 00:07:07
  TRACK 07 AUDIO
    TITLE "0:"
    INDEX 01 00:08:34
  TRACK 08 AUDIO
    TITLE "6:cjc129_2107"
    INDEX 01 00:08:66
  TRACK 09 AUDIO
    TITLE "0:"
    INDEX 01 00:13:33
  TRACK 10 AUDIO
    TITLE "3:cjc129_2108"
    INDEX 01 00:15:07
  TRACK 11 AUDIO
    TITLE "0:"
    INDEX 01 00:16:26
  TRACK 12 AUDIO
    TITLE "5:cjc129_2109"
    INDEX 01 00:16:55
  TRACK 13 AUDIO
    TITLE "0:"
    INDEX 01 00:18:54
  TRACK 14 AUDIO
    TITLE "4:cjc129_2110"
    INDEX 01 00:19:46
  TRACK 15 AUDIO
    TITLE "0:"
    INDEX 01 00:20:61
  TRACK 16 AUDIO
    TITLE "6:cjc129_2111"
    INDEX 01 00:21:17
  TRACK 17 AUDIO
    TITLE "0:"
    INDEX 01 00:25:15
  TRACK 18 AUDIO
    TITLE "3:cjc129_2112"
    INDEX 01 00:26:64
  TRACK 19 AUDIO
    TITLE "0:"
    INDEX 01 00:28:19
  TRACK 20 AUDIO
    TITLE "5:cjc129_2113"
    INDEX 01 00:28:49
  TRACK 21 AUDIO
    TITLE "0:"
    INDEX 01 00:32:54
  TRACK 22 AUDIO
    TITLE "4:cjc129_2114"
    INDEX 01 00:33:46
  TRACK 23 AUDIO
    TITLE "0:"
    INDEX 01 00:35:00
  TRACK 24 AUDIO
    TITLE "6:cjc129_2115"
    INDEX 01 00:35:31
  TRACK 25 AUDIO
    TITLE "0:"
    INDEX 01 00:39:00
  TRACK 26 AUDIO
    TITLE "2:cjc129_2116"
    INDEX 01 00:40:50
  TRACK 27 AUDIO
    TITLE "0:"
    INDEX 01 00:44:58
  TRACK 28 AUDIO
    TITLE "3:cjc129_2117"
    INDEX 01 00:46:00
  TRACK 29 AUDIO
    TITLE "0:"
    INDEX 01 00:47:19
  TRACK 30 AUDIO
    TITLE "5:cjc129_2118"
    INDEX 01 00:47:48
  TRACK 31 AUDIO
    TITLE "0:"
    INDEX 01 00:52:16
  TRACK 32 AUDIO
    TITLE "4:cjc129_2119"
    INDEX 01 00:53:08
  TRACK 33 AUDIO
    TITLE "0:"
    INDEX 01 00:54:25
  TRACK 34 AUDIO
    TITLE "6:cjc129_2120"
    INDEX 01 00:54:56
  TRACK 35 AUDIO
    TITLE "0:"
    INDEX 01 00:59:45
  TRACK 36 AUDIO
    TITLE "3:cjc129_2121"
    INDEX 01 01:01:17
  TRACK 37 AUDIO
    TITLE "0:"
    INDEX 01 01:04:48
  TRACK 38 AUDIO
    TITLE "5:cjc129_2122"
    INDEX 01 01:05:05
  TRACK 39 AUDIO
    TITLE "0:"
    INDEX 01 01:08:48
  TRACK 40 AUDIO
    TITLE "4:cjc129_2123"
    INDEX 01 01:09:38
  TRACK 41 AUDIO
    TITLE "0:"
    INDEX 01 01:12:70
  TRACK 42 AUDIO
    TITLE "6:cjc129_2124"
    INDEX 01 01:13:26
  TRACK 43 AUDIO
    TITLE "0:"
    INDEX 01 01:18:54
  TRACK 44 AUDIO
    TITLE "3:cjc129_2125"
    INDEX 01 01:20:28
  TRACK 45 AUDIO
    TITLE "0:"
    INDEX 01 01:23:69
  TRACK 46 AUDIO
    TITLE "5:cjc129_2126"
    INDEX 01 01:24:22
  TRACK 47 AUDIO
    TITLE "0:"
    INDEX 01 01:26:25
  TRACK 48 AUDIO
    TITLE "4:cjc129_2127"
    INDEX 01 01:27:12
  TRACK 49 AUDIO
    TITLE "0:"
    INDEX 01 01:30:52
  TRACK 50 AUDIO
    TITLE "6:cjc129_2128"
    INDEX 01 01:31:06
  TRACK 51 AUDIO
    TITLE "0:"
    INDEX 01 01:35:73
  TRACK 52 AUDIO
    TITLE "3:cjc129_2129"
    INDEX 01 01:37:48
  TRACK 53 AUDIO
    TITLE "0:"
    INDEX 01 01:40:54
  TRACK 54 AUDIO
    TITLE "5:cjc129_2130"
    INDEX 01 01:41:10
  TRACK 55 AUDIO
    TITLE "0:"
    INDEX 01 01:45:10
  TRACK 56 AUDIO
    TITLE "4:cjc129_2131"
    INDEX 01 01:45:71
  TRACK 57 AUDIO
    TITLE "0:"
    INDEX 01 01:49:04
  TRACK 58 AUDIO
    TITLE "6:cjc129_2132"
    INDEX 01 01:49:33
  TRACK 59 AUDIO
    TITLE "0:"
    INDEX 01 01:53:51
  TRACK 60 AUDIO
    TITLE "3:cjc129_2133"
    INDEX 01 01:55:24
  TRACK 61 AUDIO
    TITLE "0:"
    INDEX 01 01:58:72
  TRACK 62 AUDIO
    TITLE "5:cjc129_2134"
    INDEX 01 01:59:30
  TRACK 63 AUDIO
    TITLE "0:"
    INDEX 01 02:03:73
  TRACK 64 AUDIO
    TITLE "4:cjc129_2135"
    INDEX 01 02:04:59
  TRACK 65 AUDIO
    TITLE "0:"
    INDEX 01 02:08:31
  TRACK 66 AUDIO
    TITLE "6:cjc129_2136"
    INDEX 01 02:08:62
  TRACK 67 AUDIO
    TITLE "0:"
    INDEX 01 02:12:52
